<?xml version="1.0"?>
<svg width="158" height="210" xmlns="http://www.w3.org/2000/svg">
 <!-- Created with SVG-edit - http://svg-edit.googlecode.com/ -->
 <g>
  <title>Layer 1</title>
  <g id="svg_6">
   <metadata fill="none" transform="translate(99,111) translate(-306,-108) translate(226,-19) translate(186.44601440429688,-108.1907958984375) scale(1.1075351238250732,1) translate(-186.44601440429688,108.1907958984375) translate(-82.73751831054688,-108.1907958984375) scale(0.6044313907623291,0.4748087227344513) translate(82.73751831054688,108.1907958984375) translate(11.002354621887207,5.916496276855469) scale(0.8512619137763977,0.8559088706970215) translate(-11.002354621887207,-5.916496276855469) translate(12.924758911132812,6.912530899047852) scale(1.013978123664856,1.019805669784546) translate(-12.924758911132812,-6.912530899047852) "/>
   <metadata fill="none" transform="translate(99,111) translate(-306,-108) translate(226,-19) translate(186.44601440429688,-108.1907958984375) scale(1.1075351238250732,1) translate(-186.44601440429688,108.1907958984375) translate(-82.73751831054688,-108.1907958984375) scale(0.6044313907623291,0.4748087227344513) translate(82.73751831054688,108.1907958984375) translate(11.002354621887207,5.916496276855469) scale(0.8512619137763977,0.8559088706970215) translate(-11.002354621887207,-5.916496276855469) translate(12.924758911132812,6.912530899047852) scale(1.013978123664856,1.019805669784546) translate(-12.924758911132812,-6.912530899047852) "/>
   <g id="svg_5">
    <g>
     <path stroke-linejoin="round" fill="none" stroke-width="0.109287" stroke="#000000" d="m7.593196,30.779264c0.227953,-14.627022 7.187155,-26.430247 15.543845,-26.363267c8.356663,0.066973 14.946299,11.97886 14.718344,26.605882c-0.227879,14.626856 -7.187101,26.430162 -15.54377,26.363432c-8.356683,-0.067142 -14.94632,-11.979027 -14.718419,-26.606047z"/>
     <path stroke-linejoin="round" fill="none" stroke-width="0.109287" stroke="#000000" d="m8.922314,52.398335c0.221934,-14.241879 6.741245,-25.736675 14.561243,-25.673971c7.819983,0.062664 13.979494,11.659204 13.757555,25.901083c-0.221954,14.242298 -6.741268,25.736835 -14.561247,25.674259c-7.820001,-0.062988 -13.9795,-11.659081 -13.757551,-25.901371z"/>
     <path stroke-linejoin="round" fill="none" stroke-width="0.109287" stroke="#000000" d="m9.910209,78.097458c0.259623,-16.661388 6.125813,-30.122875 13.102473,-30.066925c6.976713,0.055946 12.421919,13.6082 12.162294,30.269592c-0.259624,16.661804 -6.125811,30.123299 -13.102531,30.067345c-6.976659,-0.055954 -12.421906,-13.6082 -12.162236,-30.270012z"/>
     <path stroke-linejoin="round" fill="none" stroke-width="0.109287" stroke="#000000" d="m8.785593,96.809517c0.240783,-15.452049 7.023984,-27.925514 15.150625,-27.860451c8.126705,0.065483 14.519474,12.644218 14.278702,28.096268c-0.240791,15.45163 -7.023985,27.925095 -15.15064,27.860016c-8.126701,-0.065056 -14.519467,-12.644211 -14.278687,-28.095833z"/>
     <path stroke-linejoin="round" fill="none" stroke-width="0.109287" stroke="#000000" d="m9.458589,124.895828c0.227077,-14.57177 7.185588,-26.330742 15.542272,-26.263596c8.356684,0.067131 14.947012,11.934265 14.719919,26.506462c-0.227016,14.57177 -7.185535,26.33033 -15.542219,26.263588c-8.356683,-0.067139 -14.946997,-11.93428 -14.719972,-26.506454z"/>
     <path stroke-linejoin="round" fill="none" stroke-width="0.109287" stroke="#000000" d="m8.800853,149.287384c0.224483,-14.407242 7.056626,-26.03318 15.259948,-25.967262c8.203379,0.065903 14.671495,11.798317 14.446951,26.205574c-0.22448,14.40683 -7.056633,26.032745 -15.259958,25.966858c-8.203314,-0.065491 -14.671431,-11.797928 -14.44694,-26.20517z"/>
     <path stroke-linejoin="round" fill="none" stroke-width="0.109287" stroke="#000000" d="m9.901311,176.846115c0,-14.052063 6.121488,-25.44342 13.672784,-25.44342c7.551308,0 13.672785,11.391357 13.672785,25.44342c0,14.052048 -6.121477,25.443405 -13.672785,25.443405c-7.551296,0 -13.672784,-11.391357 -13.672784,-25.443405z"/>
     <path stroke-linejoin="round" fill="none" stroke-width="0.109287" stroke="#000000" d="m9.955865,11.393162c1.03072,-5.466567 16.396365,-8.488761 34.32014,-6.750259c17.923553,1.738543 31.61858,7.579435 30.587742,13.046009c-1.030838,5.466606 -16.396351,8.488802 -34.32021,6.750259c-17.923838,-1.738543 -31.618392,-7.579435 -30.587672,-13.046009z"/>
     <path stroke-linejoin="round" fill="none" stroke-width="0.109287" stroke="#000000" d="m38.480873,11.740217c2.03632,-6.061212 15.512421,-8.931013 30.099617,-6.409878c14.587761,2.521129 24.762108,9.478449 22.725838,15.539661c-2.036247,6.061211 -15.512291,8.931011 -30.100044,6.409883c-14.587082,-2.521135 -24.761703,-9.478495 -22.72541,-15.539667z"/>
     <path stroke-linejoin="round" fill="none" stroke-width="0.109287" stroke="#000000" d="m89.512199,31.233116c-11.34388,-9.233969 -16.075661,-19.541347 -10.567841,-23.022207c5.507233,-3.480855 19.16877,1.182942 30.512627,10.416878c11.344437,9.233974 16.076241,19.541513 10.568413,23.022413c-5.507248,3.480484 -19.16877,-1.183231 -30.513199,-10.417084z"/>
     <path stroke-linejoin="round" fill="none" stroke-width="0.109287" stroke="#000000" d="m103.842247,42.629524c-9.734612,-10.847765 -12.095604,-22.194895 -5.273209,-25.344324c6.822357,-3.149425 20.244087,3.091404 29.978706,13.939379c9.734619,10.847935 12.095596,22.194935 5.273224,25.34428c-6.82238,3.149765 -20.244095,-3.09132 -29.978722,-13.939335z"/>
     <path stroke-linejoin="round" fill="none" stroke-width="0.109287" stroke="#000000" d="m113.468254,56.114635c-0.917015,-12.553028 4.907463,-22.976372 13.009712,-23.280823c8.102249,-0.304405 15.413498,9.625378 16.33049,22.178406c0.917007,12.553036 -4.908035,22.976246 -13.0103,23.280857c-8.102272,0.304207 -15.41349,-9.625412 -16.329903,-22.17844z"/>
     <path stroke-linejoin="round" fill="none" stroke-width="0.109287" stroke="#000000" d="m110.573326,70.829399c11.145668,-10.285625 25.577431,-16.153294 32.660393,-12.204906c7.082993,3.948387 4.134338,16.217518 -7.010742,26.503155c-11.145081,10.285194 -25.921799,15.422615 -33.004776,11.474228c-7.082985,-3.948387 -3.789948,-15.486862 7.355125,-25.772476z"/>
     <path stroke-linejoin="round" fill="none" stroke-width="0.109287" stroke="#000000" d="m8.779008,104.888237c0,-5.292023 12.243699,-9.582321 27.347014,-9.582321c15.103367,0 27.347076,4.290298 27.347076,9.582321c0,5.292 -12.24371,9.582291 -27.347076,9.582291c-15.103315,0 -27.347014,-4.290291 -27.347014,-9.582291z"/>
     <path stroke-linejoin="round" fill="none" stroke-width="0.109287" stroke="#000000" d="m33.737518,106.818291c-1.665459,-5.691544 12.724815,-12.675301 32.141624,-15.597946c19.416656,-2.923058 36.506996,-0.678024 38.172859,5.013504c1.665291,5.691948 -12.724869,12.675293 -32.14151,15.597946c-19.417007,2.923042 -36.507511,0.678436 -38.172974,-5.013504z"/>
     <path stroke-linejoin="round" fill="none" stroke-width="0.109287" stroke="#000000" d="m73.855446,105.487923c-3.123146,-4.597816 7.923706,-13.069008 24.673698,-18.921341c16.749413,-5.852341 32.859192,-6.868965 35.98175,-2.271149c3.122559,4.597824 -7.924301,13.069016 -24.673706,18.921349c-16.749413,5.851913 -32.859177,6.868958 -35.981743,2.271141z"/>
     <path stroke-linejoin="round" fill="none" stroke-width="0.109287" stroke="#000000" d="m45.104614,129.485352c-13.256807,-7.120934 -19.542553,-17.166183 -14.039587,-22.436226c5.50297,-5.270042 20.710741,-3.769768 33.967604,3.351181c13.25705,7.120949 19.542625,17.166191 14.039429,22.436226c-5.50264,5.270462 -20.710411,3.76976 -33.967445,-3.351181z"/>
     <path stroke-linejoin="round" fill="none" stroke-width="0.109287" stroke="#000000" d="m64.561134,138.08046c-13.661518,-9.913452 -19.325539,-21.785545 -12.651081,-26.517235c6.674644,-4.732094 23.159977,-0.531715 36.821491,9.38131c13.661522,9.913025 19.325363,21.785126 12.650909,26.517227c-6.674469,4.732101 -23.159821,0.531738 -36.82132,-9.381302z"/>
     <path stroke-linejoin="round" fill="none" stroke-width="0.109287" stroke="#000000" d="m86.639259,157.063538c-11.60157,-12.028748 -14.097214,-25.207581 -5.57486,-29.436531c8.522919,-4.228561 24.836639,2.094154 36.43821,14.122505c11.601578,12.028351 14.097778,25.207626 5.574852,29.436157c-8.522919,4.228973 -24.836639,-2.09375 -36.438202,-14.122131z"/>
     <path stroke-linejoin="round" fill="none" stroke-width="0.109287" stroke="#000000" d="m107.879517,172.655701c-12.680969,-12.813721 -16.979958,-26.245773 -9.602295,-30.001862c7.377655,-3.756104 23.638252,3.586151 36.319183,16.399857c12.680954,12.813324 16.979965,26.245773 9.602875,30.001892c-7.37767,3.755646 -23.638237,-3.586594 -36.319763,-16.399887z"/>
     <path stroke-linejoin="round" fill="none" stroke-width="0.109287" stroke="#000000" d="m119.201988,186.014816c-6.185616,-13.364517 -5.143211,-25.640686 2.329216,-27.419907c7.471848,-1.778778 18.543549,7.6129 24.729172,20.976974c6.185638,13.364502 5.142639,25.640701 -2.329208,27.419891c-7.471863,1.779205 -18.543571,-7.612457 -24.729179,-20.976959z"/>
    </g>
   </g>
  </g>
 </g>
</svg>