<?xml version="1.0"?>
<svg width="200" height="100" xmlns="http://www.w3.org/2000/svg">
 <!-- Created with SVG-edit - http://svg-edit.googlecode.com/ -->
 <g>
  <title>Layer 1</title>
  <g id="svg_12">
   <metadata transform="translate(-15,1) translate(79,63) translate(-69,-76) translate(-61.595191955566406,-62.027198791503906) scale(0.32436832785606384,0.3757071793079376) translate(61.595191955566406,62.027198791503906) translate(53.65754318237305,2.5892536640167236) scale(1.0968797206878662,1) translate(-53.65754318237305,-2.5892536640167236) translate(6.759007930755615,5.250901222229004) scale(1.0552018880844116,1) translate(-6.759007930755615,-5.250901222229004) translate(6.405416965484619,5.250901222229004) scale(1.015694260597229,1) translate(-6.405416965484619,-5.250901222229004) "/>
   <metadata transform="translate(-15,1) translate(79,63) translate(-69,-76) translate(-61.595191955566406,-62.027198791503906) scale(0.32436832785606384,0.3757071793079376) translate(61.595191955566406,62.027198791503906) translate(53.65754318237305,2.5892536640167236) scale(1.0968797206878662,1) translate(-53.65754318237305,-2.5892536640167236) translate(6.759007930755615,5.250901222229004) scale(1.0552018880844116,1) translate(-6.759007930755615,-5.250901222229004) translate(6.405416965484619,5.250901222229004) scale(1.015694260597229,1) translate(-6.405416965484619,-5.250901222229004) "/>
   <g id="svg_11">
    <path d="m2.404808,46.186096c0,-9.251411 2.658751,-16.751392 5.938496,-16.751392c3.27978,0 5.938537,7.499981 5.938537,16.751392c0,9.251789 -2.658756,16.751659 -5.938537,16.751659c-3.279744,0 -5.938496,-7.49987 -5.938496,-16.751659z" stroke="#000000" stroke-width="0.109287" fill="none" stroke-linejoin="round"/>
    <path d="m2.404808,58.248924c0,-10.203453 2.658751,-18.474648 5.938496,-18.474648c3.27978,0 5.938537,8.271194 5.938537,18.474648c0,10.203461 -2.658756,18.474648 -5.938537,18.474648c-3.279744,0 -5.938496,-8.271187 -5.938496,-18.474648z" stroke="#000000" stroke-width="0.109287" fill="none" stroke-linejoin="round"/>
    <path d="m2.404808,34.604549c0,-2.855301 8.24944,-5.169846 18.425648,-5.169846c9.314531,0 18.425739,2.314545 18.425739,5.169846c0,2.855 -8.249525,5.169727 -18.425739,5.169727c-10.176208,0 -18.425648,-2.314728 -18.425648,-5.169727z" stroke="#000000" stroke-width="0.109287" fill="none" stroke-linejoin="round"/>
    <path d="m2.404808,68.107483c0,-2.854996 8.24944,-5.169727 18.425648,-5.169727c9.314531,0 18.425739,2.314732 18.425739,5.169727c0,2.854996 -8.249525,5.169731 -18.425739,5.169731c-10.176208,0 -18.425648,-2.314735 -18.425648,-5.169731z" stroke="#000000" stroke-width="0.109287" fill="none" stroke-linejoin="round"/>
    <path d="m20.830456,34.604549c0,-2.855301 8.249451,-5.169846 18.425739,-5.169846c9.314255,0 18.425652,2.314545 18.425652,5.169846c0,2.855 -8.249596,5.169727 -18.425652,5.169727c-10.176289,0 -18.425739,-2.314728 -18.425739,-5.169727z" stroke="#000000" stroke-width="0.109287" fill="none" stroke-linejoin="round"/>
    <path d="m20.830456,68.107483c0,-2.854996 8.249451,-5.169727 18.425739,-5.169727c9.314255,0 18.425652,2.314732 18.425652,5.169727c0,2.854996 -8.249596,5.169731 -18.425652,5.169731c-10.176289,0 -18.425739,-2.314735 -18.425739,-5.169731z" stroke="#000000" stroke-width="0.109287" fill="none" stroke-linejoin="round"/>
    <path d="m39.256195,34.604549c0,-2.855301 8.249214,-5.169846 18.425652,-5.169846c9.314262,0 18.425659,2.314545 18.425659,5.169846c0,2.855 -8.249596,5.169727 -18.425659,5.169727c-10.176437,0 -18.425652,-2.314728 -18.425652,-5.169727z" stroke="#000000" stroke-width="0.109287" fill="none" stroke-linejoin="round"/>
    <path d="m57.681847,34.604549c0,-2.855301 8.249214,-5.169846 18.425659,-5.169846c9.314255,0 18.425652,2.314545 18.425652,5.169846c0,2.855 -8.249596,5.169727 -18.425652,5.169727c-10.176445,0 -18.425659,-2.314728 -18.425659,-5.169727z" stroke="#000000" stroke-width="0.109287" fill="none" stroke-linejoin="round"/>
    <path d="m76.107506,34.604549c0,-2.855301 8.249214,-5.169846 18.425652,-5.169846c9.314262,0 18.425652,2.314545 18.425652,5.169846c0,2.855 -8.249596,5.169727 -18.425652,5.169727c-10.176437,0 -18.425652,-2.314728 -18.425652,-5.169727z" stroke="#000000" stroke-width="0.109287" fill="none" stroke-linejoin="round"/>
    <path d="m94.533157,34.604549c0,-2.855301 8.249214,-5.169846 18.425652,-5.169846c9.314255,0 18.425652,2.314545 18.425652,5.169846c0,2.855 -8.249596,5.169727 -18.425652,5.169727c-10.176437,0 -18.425652,-2.314728 -18.425652,-5.169727z" stroke="#000000" stroke-width="0.109287" fill="none" stroke-linejoin="round"/>
    <path d="m123.682831,39.773899c-2.897308,0.034946 -5.347328,-8.06395 -5.471634,-18.08947c-0.114029,-9.176609 2.123596,-18.18111 5.021278,-18.216015c2.897705,-0.034901 5.347359,8.064102 5.472038,18.089622c0.124298,10.025524 -2.123985,18.18092 -5.021683,18.215862z" stroke="#000000" stroke-width="0.109287" fill="none" stroke-linejoin="round"/>
    <path d="m39.256195,68.107483c0,-2.854996 8.249214,-5.169727 18.425652,-5.169727c9.314262,0 18.425659,2.314732 18.425659,5.169727c0,2.854996 -8.249596,5.169731 -18.425659,5.169731c-10.176437,0 -18.425652,-2.314735 -18.425652,-5.169731z" stroke="#000000" stroke-width="0.109287" fill="none" stroke-linejoin="round"/>
    <path d="m57.681847,68.107483c0,-2.854996 8.249214,-5.169727 18.425659,-5.169727c9.314255,0 18.425652,2.314732 18.425652,5.169727c0,2.854996 -8.249596,5.169731 -18.425652,5.169731c-10.176445,0 -18.425659,-2.314735 -18.425659,-5.169731z" stroke="#000000" stroke-width="0.109287" fill="none" stroke-linejoin="round"/>
    <path d="m76.107506,68.107483c0,-2.854996 8.249214,-5.169727 18.425652,-5.169727c9.314262,0 18.425652,2.314732 18.425652,5.169727c0,2.854996 -8.249596,5.169731 -18.425652,5.169731c-10.176437,0 -18.425652,-2.314735 -18.425652,-5.169731z" stroke="#000000" stroke-width="0.109287" fill="none" stroke-linejoin="round"/>
    <path d="m94.533157,68.107483c0,-2.854996 8.249214,-5.169727 18.425652,-5.169727c9.314255,0 18.425652,2.314732 18.425652,5.169727c0,2.854996 -8.249596,5.169731 -18.425652,5.169731c-10.176437,0 -18.425652,-2.314735 -18.425652,-5.169731z" stroke="#000000" stroke-width="0.109287" fill="none" stroke-linejoin="round"/>
    <path d="m123.569183,62.937756c2.897705,0.017658 5.195953,8.159603 5.133041,18.185726c-0.057968,9.177399 -2.463364,18.139511 -5.361053,18.121857c-2.898087,-0.017654 -5.195961,-8.159599 -5.133026,-18.185722c0.06292,-10.026131 2.463356,-18.139523 5.361038,-18.121861z" stroke="#000000" stroke-width="0.109287" fill="none" stroke-linejoin="round"/>
    <path d="m114.761337,98.195618c-1.445992,-2.474411 4.531677,-8.535316 13.350586,-13.537857c8.072678,-4.578362 17.140594,-7.05127 18.586563,-4.576866c1.445633,2.474411 -4.531662,8.535316 -13.350952,13.537865c-8.818939,5.002159 -17.140594,7.05127 -18.586197,4.576859z" stroke="#000000" stroke-width="0.109287" fill="none" stroke-linejoin="round"/>
    <path d="m130.729736,89.138069c-1.445618,-2.474411 4.531677,-8.535316 13.350983,-13.537483c8.072281,-4.578743 17.140579,-7.051643 18.586182,-4.57724c1.445984,2.474411 -4.531296,8.53569 -13.350601,13.537857c-8.819305,5.002167 -17.140579,7.051651 -18.586563,4.576866z" stroke="#000000" stroke-width="0.109287" fill="none" stroke-linejoin="round"/>
    <path d="m146.698486,80.080894c-1.445969,-2.474403 4.531693,-8.53569 13.350632,-13.537857c8.072632,-4.578739 17.140961,-7.051647 18.586548,-4.576862c1.445602,2.474407 -4.531647,8.535313 -13.350586,13.537479c-8.819305,5.002541 -17.140961,7.051651 -18.586594,4.57724z" stroke="#000000" stroke-width="0.109287" fill="none" stroke-linejoin="round"/>
    <path d="m162.666901,71.023346c-1.445602,-2.474403 4.531677,-8.535316 13.350967,-13.537857c8.072281,-4.578362 17.140594,-7.05127 18.586578,-4.576862c1.445587,2.474407 -4.531693,8.535316 -13.350967,13.537853c-8.81929,5.002167 -17.140594,7.051277 -18.586578,4.576866z" stroke="#000000" stroke-width="0.109287" fill="none" stroke-linejoin="round"/>
    <path d="m118.487656,4.342197c1.616806,-2.369396 9.773376,0.244961 18.218201,5.839317c7.729843,5.120663 13.980164,12.050243 12.363342,14.41964c-1.617172,2.3694 -9.773758,-0.244961 -18.218582,-5.839314c-8.444855,-5.594357 -13.97979,-12.050247 -12.362961,-14.419643z" stroke="#000000" stroke-width="0.109287" fill="none" stroke-linejoin="round"/>
    <path d="m133.778427,14.471676c1.616806,-2.369396 9.773392,0.244961 18.218216,5.839317c7.729843,5.120663 13.980179,12.050282 12.362961,14.419792c-1.616821,2.369209 -9.773376,-0.244961 -18.218231,-5.839466c-8.444824,-5.594357 -13.980148,-12.050243 -12.362946,-14.419643z" stroke="#000000" stroke-width="0.109287" fill="none" stroke-linejoin="round"/>
    <path d="m149.069199,24.601154c1.616821,-2.369396 9.773392,0.244961 18.218231,5.839317c7.729828,5.120625 13.980148,12.050167 12.362961,14.41975c-1.616821,2.369209 -9.773392,-0.244957 -18.218246,-5.839237c-8.444809,-5.594543 -13.980118,-12.05043 -12.362946,-14.41983z" stroke="#000000" stroke-width="0.109287" fill="none" stroke-linejoin="round"/>
    <path d="m164.359604,34.730785c1.617218,-2.369511 9.773743,0.244961 18.218597,5.839241c7.729843,5.120514 13.979797,12.050056 12.36293,14.419643c-1.616791,2.369209 -9.773361,-0.244965 -18.218185,-5.839245c-8.444839,-5.594654 -13.980164,-12.05043 -12.363342,-14.41964z" stroke="#000000" stroke-width="0.109287" fill="none" stroke-linejoin="round"/>
   </g>
  </g>
 </g>
</svg>