<?xml version="1.0"?>
<svg width="158" height="210" xmlns="http://www.w3.org/2000/svg">
 <!-- Created with SVG-edit - http://svg-edit.googlecode.com/ -->
 <g>
  <title>Layer 1</title>
  <g id="svg_4">
   <metadata transform="translate(0,2) translate(-6,124) translate(0,-144) translate(19.328399658203125,-119.59770202636719) scale(0.30356651544570923,0.40377381443977356) translate(-19.328399658203125,119.59770202636719) translate(43.906028747558594,10.902881622314453) scale(1.709798812866211,1.070574402809143) translate(-43.906028747558594,-10.902881622314453) "/>
   <metadata transform="translate(0,2) translate(-6,124) translate(0,-144) translate(19.328399658203125,-119.59770202636719) scale(0.30356651544570923,0.40377381443977356) translate(-19.328399658203125,119.59770202636719) translate(43.906028747558594,10.902881622314453) scale(1.709798812866211,1.070574402809143) translate(-43.906028747558594,-10.902881622314453) "/>
   <g id="svg_3">
    <path stroke-linejoin="round" fill="none" stroke-width="0.109287" stroke="#000000" d="m16.140703,29.236696c0,-12.32518 6.543819,-22.316672 14.616098,-22.316672c8.072231,0 14.6161,9.991492 14.6161,22.316672c0,12.32501 -6.543869,22.316492 -14.6161,22.316492c-8.072279,0 -14.616098,-9.991482 -14.616098,-22.316492z"/>
    <path stroke-linejoin="round" fill="none" stroke-width="0.109287" stroke="#000000" d="m15.237577,51.401905c0,-12.630714 5.998518,-22.869938 13.398071,-22.869938c7.399614,0 13.39813,10.239223 13.39813,22.869938c0,12.630924 -5.998516,22.870098 -13.39813,22.870098c-7.399553,0 -13.398071,-10.239174 -13.398071,-22.870098z"/>
    <path stroke-linejoin="round" fill="none" stroke-width="0.109287" stroke="#000000" d="m13.704652,72.394661c0,-12.325321 6.54387,-22.316803 14.616097,-22.316803c8.072287,0 14.616102,9.991482 14.616102,22.316803c0,12.324867 -6.543816,22.316353 -14.616102,22.316353c-8.072227,0 -14.616097,-9.991486 -14.616097,-22.316353z"/>
    <path stroke-linejoin="round" fill="none" stroke-width="0.109287" stroke="#000000" d="m16.140703,95.817642c0,-12.630501 5.998518,-22.869675 13.398075,-22.869675c7.399553,0 13.398073,10.239174 13.398073,22.869675c0,12.63092 -5.99852,22.870102 -13.398073,22.870102c-7.399557,0 -13.398075,-10.239182 -13.398075,-22.870102z"/>
    <path stroke-linejoin="round" fill="none" stroke-width="0.109287" stroke="#000000" d="m15.764451,114.154083c0,-12.32531 6.54382,-22.316795 14.616101,-22.316795c8.072233,0 14.616102,9.991486 14.616102,22.316795c0,12.324883 -6.543869,22.316376 -14.616102,22.316376c-8.072281,0 -14.616101,-9.991493 -14.616101,-22.316376z"/>
    <path stroke-linejoin="round" fill="none" stroke-width="0.109287" stroke="#000000" d="m14.861325,136.319168c0,-12.630501 5.998517,-22.870117 13.398076,-22.870117c7.399607,0 13.398127,10.239616 13.398127,22.870117c0,12.63092 -5.99852,22.870102 -13.398127,22.870102c-7.399559,0 -13.398076,-10.239182 -13.398076,-22.870102z"/>
    <path stroke-linejoin="round" fill="none" stroke-width="0.109287" stroke="#000000" d="m13.3284,157.311905c0,-12.325302 6.543873,-22.316788 14.6161,-22.316788c8.072277,0 14.6161,9.991486 14.6161,22.316788c0,12.32489 -6.543823,22.316376 -14.6161,22.316376c-8.072227,0 -14.6161,-9.991486 -14.6161,-22.316376z"/>
    <path stroke-linejoin="round" fill="none" stroke-width="0.109287" stroke="#000000" d="m15.764451,180.734894c0,-12.630493 5.998517,-22.869675 13.398076,-22.869675c7.399553,0 13.398127,10.239182 13.398127,22.869675c0,12.630936 -5.998573,22.870117 -13.398127,22.870117c-7.399559,0 -13.398076,-10.239182 -13.398076,-22.870117z"/>
    <path stroke-linejoin="round" fill="none" stroke-width="0.109287" stroke="#000000" d="m22.34943,14.314479c2.060577,-6.040277 16.514431,-7.912181 32.283627,-4.180959c15.769035,3.731189 26.882149,11.652576 24.821571,17.692852c-2.060577,6.040285 -16.514217,7.912142 -32.283524,4.18096c-15.76919,-3.731222 -26.882204,-11.652576 -24.821674,-17.692853z"/>
    <path stroke-linejoin="round" fill="none" stroke-width="0.109287" stroke="#000000" d="m47.019028,20.421978c2.259995,-5.690702 15.785912,-7.082829 30.211006,-3.109316c14.425613,3.973465 24.287323,11.807888 22.027428,17.49859c-2.25988,5.690529 -15.786003,7.082867 -30.211098,3.109364c-14.425453,-3.973522 -24.287327,-11.807888 -22.027336,-17.498638z"/>
    <path stroke-linejoin="round" fill="none" stroke-width="0.109287" stroke="#000000" d="m76.729683,30.948446c2.736885,-5.33737 15.941719,-5.756977 29.494827,-0.93721c13.553108,4.819773 22.32122,13.053907 19.584846,18.391146c-2.73687,5.337231 -15.942238,5.756966 -29.49482,0.93716c-13.553116,-4.819817 -22.32122,-13.053696 -19.584854,-18.391096z"/>
    <path stroke-linejoin="round" fill="none" stroke-width="0.109287" stroke="#000000" d="m99.490524,34.653385c4.221848,-4.128866 16.03463,-1.525394 26.384766,5.815113c10.350113,7.340374 15.317841,16.638065 11.095993,20.766678c-4.221344,4.129036 -16.034126,1.525482 -26.384262,-5.814892c-10.350121,-7.340378 -15.318344,-16.638077 -11.096497,-20.766899z"/>
    <path stroke-linejoin="round" fill="none" stroke-width="0.109287" stroke="#000000" d="m120.941315,66.572418c-3.426697,-10.068878 -1.259705,-19.398552 4.84053,-20.838444c6.099747,-1.439892 13.822495,5.555107 17.249176,15.624397c3.427216,10.068859 1.25972,19.398548 -4.840012,20.838436c-6.10025,1.439896 -13.823013,-5.555527 -17.249695,-15.62439z"/>
    <path stroke-linejoin="round" fill="none" stroke-width="0.109287" stroke="#000000" d="m123.815735,76.713036c0,-9.799568 5.140045,-17.743389 11.480072,-17.743389c6.340576,0 11.480072,7.943821 11.480072,17.743389c0,9.799561 -5.139496,17.743813 -11.480072,17.743813c-6.340027,0 -11.480072,-7.944252 -11.480072,-17.743813z"/>
    <path stroke-linejoin="round" fill="none" stroke-width="0.109287" stroke="#000000" d="m126.091202,87.56604c0,-9.704468 4.815628,-17.57135 10.756012,-17.57135c5.940399,0 10.756027,7.866882 10.756027,17.57135c0,9.704453 -4.815628,17.571335 -10.756027,17.571335c-5.940384,0 -10.756012,-7.866882 -10.756012,-17.571335z"/>
    <path stroke-linejoin="round" fill="none" stroke-width="0.109287" stroke="#000000" d="m124.850182,102.467239c0,-10.512802 5.23243,-19.035431 11.686653,-19.035431c6.454758,0 11.687164,8.522629 11.687164,19.035431c0,10.513237 -5.232407,19.035873 -11.687164,19.035873c-6.454224,0 -11.686653,-8.522636 -11.686653,-19.035873z"/>
    <path stroke-linejoin="round" fill="none" stroke-width="0.109287" stroke="#000000" d="m125.677528,119.532402c0,-10.560791 4.769447,-19.121895 10.652718,-19.121895c5.883301,0 10.65274,8.561104 10.65274,19.121895c0,10.560783 -4.76944,19.121895 -10.65274,19.121895c-5.88327,0 -10.652718,-8.561111 -10.652718,-19.121895z"/>
    <path stroke-linejoin="round" fill="none" stroke-width="0.109287" stroke="#000000" d="m19.77355,192.769714c0,-5.496307 11.579107,-9.952133 25.862711,-9.952133c14.283348,0 25.862556,4.455826 25.862556,9.952133c0,5.496323 -11.579208,9.952148 -25.862556,9.952148c-14.283604,0 -25.862711,-4.455826 -25.862711,-9.952148z"/>
    <path stroke-linejoin="round" fill="none" stroke-width="0.109287" stroke="#000000" d="m44.057407,195.194321c-2.167561,-5.399063 6.259434,-12.611481 18.822273,-16.109833c12.562786,-3.498367 24.504292,-1.957748 26.671787,3.440872c2.167503,5.399033 -6.25959,12.611908 -18.82238,16.110275c-12.56279,3.498352 -24.504135,1.957748 -26.67168,-3.441315z"/>
    <path stroke-linejoin="round" fill="none" stroke-width="0.109287" stroke="#000000" d="m123.166435,140.805252c0,-10.560791 5.197624,-19.121887 11.608788,-19.121887c6.410645,0 13.034576,7.987488 13.034576,18.548264c0,10.561218 -6.623932,19.695953 -13.034576,19.695953c-6.411163,0 -11.608788,-8.561096 -11.608788,-19.12233z"/>
    <path stroke-linejoin="round" fill="none" stroke-width="0.109287" stroke="#000000" d="m120.106178,152.435471c5.369446,-9.000717 14.137032,-14.4711 19.582771,-12.217667c5.446274,2.252991 5.508545,11.37648 0.139633,20.37764c-5.369461,9.001144 -14.13652,14.4711 -19.582771,12.218109c-5.446281,-2.253433 -5.50856,-11.376923 -0.139633,-20.378082z"/>
    <path stroke-linejoin="round" fill="none" stroke-width="0.109287" stroke="#000000" d="m86.504196,173.301147c10.130051,-4.678452 20.729324,-4.884216 23.675385,-0.460358c2.945541,4.423843 -2.878578,11.802689 -13.008125,16.48114c-10.130051,4.678024 -20.729836,4.884216 -23.675385,0.459946c-2.945534,-4.423843 2.878067,-11.802704 13.008125,-16.480728z"/>
    <path stroke-linejoin="round" fill="none" stroke-width="0.109287" stroke="#000000" d="m89.549911,181.906784c-2.930489,-4.392731 3.579285,-12.065506 14.540848,-17.137344c10.961029,-5.071823 22.222588,-5.622543 25.153076,-1.229797c2.930496,4.3927 -3.579803,12.065506 -14.54084,17.137329c-10.961037,5.07225 -22.222595,5.622955 -25.153084,1.229813z"/>
   </g>
  </g>
 </g>
</svg>