<?xml version="1.0"?>
<svg width="158" height="210" xmlns="http://www.w3.org/2000/svg">
 <!-- Created with SVG-edit - http://svg-edit.googlecode.com/ -->
 <g>
  <title>Layer 1</title>
  <g id="svg_2">
   <metadata transform="translate(1,-2) translate(5,2) translate(-1,8) translate(83,96) translate(-84,-133) translate(-80.08495330810547,-98.44000244140625) scale(0.5105672478675842,0.5153087377548218) translate(80.08495330810547,98.44000244140625) translate(5.709427356719971,-4.735030174255371) scale(0.8592257499694824,0.8327850103378296) translate(-5.709427356719971,4.735030174255371) translate(4.365350723266602,12.956096649169922) scale(1.1326311826705933,1) translate(-4.365350723266602,-12.956096649169922) "/>
   <metadata transform="translate(1,-2) translate(5,2) translate(-1,8) translate(83,96) translate(-84,-133) translate(-80.08495330810547,-98.44000244140625) scale(0.5105672478675842,0.5153087377548218) translate(80.08495330810547,98.44000244140625) translate(5.709427356719971,-4.735030174255371) scale(0.8592257499694824,0.8327850103378296) translate(-5.709427356719971,4.735030174255371) translate(4.365350723266602,12.956096649169922) scale(1.1326311826705933,1) translate(-4.365350723266602,-12.956096649169922) "/>
   <g id="svg_1">
    <path stroke-linejoin="round" fill="none" stroke-width="0.109287" stroke="#000000" d="m17.961027,31.834908c0,-14.511244 3.986498,-26.27491 8.904032,-26.27491c4.917591,0 8.904037,11.763666 8.904037,26.27491c0,14.511116 -3.986446,26.274742 -8.904037,26.274742c-4.917534,0 -8.904032,-11.763626 -8.904032,-26.274742z"/>
    <path stroke-linejoin="round" fill="none" stroke-width="0.109287" stroke="#000000" d="m17.961027,59.437412c0,-15.244389 3.986498,-27.602505 8.904032,-27.602505c4.917591,0 8.904037,12.358116 8.904037,27.602505c0,15.244389 -3.986446,27.602375 -8.904037,27.602375c-4.917534,0 -8.904032,-12.357986 -8.904032,-27.602375z"/>
    <path stroke-linejoin="round" fill="none" stroke-width="0.109287" stroke="#000000" d="m17.219044,83.102844c0,-13.803329 4.318651,-24.993195 9.646015,-24.993195c5.32737,0 9.646072,11.189865 9.646072,24.993195c0,13.803337 -4.318703,24.993195 -9.646072,24.993195c-5.327364,0 -9.646015,-11.189857 -9.646015,-24.993195z"/>
    <path stroke-linejoin="round" fill="none" stroke-width="0.109287" stroke="#000000" d="m19.233032,106.997444c0,-13.196533 3.701733,-23.8946 8.268034,-23.8946c4.566294,0 8.26803,10.698067 8.26803,23.8946c0,13.196953 -3.701736,23.894585 -8.26803,23.894585c-4.566301,0 -8.268034,-10.697632 -8.268034,-23.894585z"/>
    <path stroke-linejoin="round" fill="none" stroke-width="0.109287" stroke="#000000" d="m18.703064,134.599808c0,-15.244385 3.986444,-27.602364 8.904032,-27.602364c4.917543,0 8.904036,12.357979 8.904036,27.602364c0,15.244385 -3.986492,27.602386 -8.904036,27.602386c-4.917587,0 -8.904032,-12.358002 -8.904032,-27.602386z"/>
    <path stroke-linejoin="round" fill="none" stroke-width="0.109287" stroke="#000000" d="m17.855045,155.885223c0,-13.803329 4.318653,-24.993195 9.646021,-24.993195c5.327364,0 9.646063,11.189865 9.646063,24.993195c0,13.803329 -4.318699,24.993195 -9.646063,24.993195c-5.327368,0 -9.646021,-11.189865 -9.646021,-24.993195z"/>
    <path stroke-linejoin="round" fill="none" stroke-width="0.109287" stroke="#000000" d="m18.703064,180.878418c0,-13.196518 3.701681,-23.894592 8.26803,-23.894592c4.566299,0 8.268034,10.698074 8.268034,23.894592c0,13.19696 -3.701735,23.894608 -8.268034,23.894608c-4.566349,0 -8.26803,-10.697647 -8.26803,-23.894608z"/>
    <path stroke-linejoin="round" fill="none" stroke-width="0.109287" stroke="#000000" d="m119.476295,31.834908c0,-14.511244 3.986443,-26.27491 8.90403,-26.27491c4.917587,0 8.904022,11.763666 8.904022,26.27491c0,14.511116 -3.986435,26.274742 -8.904022,26.274742c-4.917587,0 -8.90403,-11.763626 -8.90403,-26.274742z"/>
    <path stroke-linejoin="round" fill="none" stroke-width="0.109287" stroke="#000000" d="m119.476295,59.437412c0,-15.244389 3.986443,-27.602505 8.90403,-27.602505c4.917587,0 8.904022,12.358116 8.904022,27.602505c0,15.244389 -3.986435,27.602375 -8.904022,27.602375c-4.917587,0 -8.90403,-12.357986 -8.90403,-27.602375z"/>
    <path stroke-linejoin="round" fill="none" stroke-width="0.109287" stroke="#000000" d="m118.733955,83.102844c0,-13.803329 4.318863,-24.993195 9.64637,-24.993195c5.327011,0 9.645874,11.189865 9.645874,24.993195c0,13.803337 -4.318863,24.993195 -9.645874,24.993195c-5.327507,0 -9.64637,-11.189857 -9.64637,-24.993195z"/>
    <path stroke-linejoin="round" fill="none" stroke-width="0.109287" stroke="#000000" d="m120.748299,106.997444c0,-13.196533 3.701736,-23.8946 8.268028,-23.8946c4.566299,0 8.268021,10.698067 8.268021,23.8946c0,13.196953 -3.701721,23.894585 -8.268021,23.894585c-4.566292,0 -8.268028,-10.697632 -8.268028,-23.894585z"/>
    <path stroke-linejoin="round" fill="none" stroke-width="0.109287" stroke="#000000" d="m120.218132,134.599808c0,-15.244385 3.986443,-27.602364 8.90403,-27.602364c4.917603,0 8.904037,12.357979 8.904037,27.602364c0,15.244385 -3.986435,27.602386 -8.904037,27.602386c-4.917587,0 -8.90403,-12.358002 -8.90403,-27.602386z"/>
    <path stroke-linejoin="round" fill="none" stroke-width="0.109287" stroke="#000000" d="m119.369965,155.885223c0,-13.803329 4.318848,-24.993195 9.646362,-24.993195c5.327011,0 9.645874,11.189865 9.645874,24.993195c0,13.803329 -4.318863,24.993195 -9.645874,24.993195c-5.327515,0 -9.646362,-11.189865 -9.646362,-24.993195z"/>
    <path stroke-linejoin="round" fill="none" stroke-width="0.109287" stroke="#000000" d="m120.218132,180.878418c0,-13.196518 3.701736,-23.894592 8.268044,-23.894592c4.566299,0 8.268021,10.698074 8.268021,23.894592c0,13.19696 -3.701721,23.894608 -8.268021,23.894608c-4.566307,0 -8.268044,-10.697647 -8.268044,-23.894608z"/>
    <path stroke-linejoin="round" fill="none" stroke-width="0.109287" stroke="#000000" d="m122.568352,98.934731c16.801399,-0.105141 30.450127,3.252029 30.485893,7.499245c0.035767,4.247215 -13.555298,7.77562 -30.356689,7.88118c-16.800911,0.105141 -30.450119,-3.252022 -30.485886,-7.499237c-0.035774,-4.247215 13.555298,-7.77562 30.356682,-7.881187z"/>
    <path stroke-linejoin="round" fill="none" stroke-width="0.109287" stroke="#000000" d="m90.610237,99.135574c17.650055,-0.110725 31.986938,3.242157 32.022713,7.489372c0.035789,4.247215 -14.243469,7.7799 -31.893532,7.890617c-17.650055,0.110718 -31.987438,-3.242157 -32.023212,-7.489372c-0.035278,-4.247215 14.243969,-7.779907 31.894032,-7.890617z"/>
    <path stroke-linejoin="round" fill="none" stroke-width="0.109287" stroke="#000000" d="m63.203999,98.666512c15.982044,-0.099983 28.968914,3.548569 29.007671,8.149406c0.038757,4.600815 -12.885513,8.412025 -28.867054,8.512444c-15.981796,0.10041 -28.968861,-3.548141 -29.007618,-8.148972c-0.038712,-4.60125 12.885605,-8.412453 28.867001,-8.512878z"/>
    <path stroke-linejoin="round" fill="none" stroke-width="0.109287" stroke="#000000" d="m35.553497,100.579628c15.279163,-0.095695 27.692245,3.023308 27.725533,6.967117c0.033287,3.94381 -12.326176,7.218582 -27.605335,7.314713c-15.27916,0.095695 -27.69227,-3.023735 -27.725451,-6.96711c-0.033196,-3.94381 12.326091,-7.218597 27.605254,-7.31472z"/>
   </g>
  </g>
 </g>
</svg>