<?xml version="1.0"?>
<svg width="158" height="210" xmlns="http://www.w3.org/2000/svg">
 <!-- Created with SVG-edit - http://svg-edit.googlecode.com/ -->
 <g>
  <title>Layer 1</title>
  <g id="svg_10">
   <metadata transform="translate(-1,0) translate(-1,0) translate(-1,0) translate(-1,0) translate(1,0) translate(1,0) translate(1,0) translate(1,0) translate(1,0) translate(-1,0) translate(5,2) translate(0,-1) translate(5,27) translate(28,68) translate(-29,-132) translate(-28.278444290161133,304.05303955078125) scale(1,1.047346591949463) translate(28.278444290161133,-304.05303955078125) translate(-28.278444290161133,-89.86748504638672) scale(0.6245058178901672,0.6333274245262146) translate(28.278444290161133,89.86748504638672) translate(-0.44586339592933655,-39.38169860839844) scale(0.7833275198936462,0.84138023853302) translate(0.44586339592933655,39.38169860839844) translate(9.651731491088867,-0.2193266898393631) scale(0.9654243588447571,0.9717215299606323) translate(-9.651731491088867,0.2193266898393631) translate(20.584373474121094,3.4621737003326416) scale(1.0143256187438965,1) translate(-20.584373474121094,-3.4621737003326416) "/>
   <metadata transform="translate(-1,0) translate(-1,0) translate(-1,0) translate(-1,0) translate(1,0) translate(1,0) translate(1,0) translate(1,0) translate(1,0) translate(-1,0) translate(5,2) translate(0,-1) translate(5,27) translate(28,68) translate(-29,-132) translate(-28.278444290161133,304.05303955078125) scale(1,1.047346591949463) translate(28.278444290161133,-304.05303955078125) translate(-28.278444290161133,-89.86748504638672) scale(0.6245058178901672,0.6333274245262146) translate(28.278444290161133,89.86748504638672) translate(-0.44586339592933655,-39.38169860839844) scale(0.7833275198936462,0.84138023853302) translate(0.44586339592933655,39.38169860839844) translate(9.651731491088867,-0.2193266898393631) scale(0.9654243588447571,0.9717215299606323) translate(-9.651731491088867,0.2193266898393631) translate(20.584373474121094,3.4621737003326416) scale(1.0143256187438965,1) translate(-20.584373474121094,-3.4621737003326416) "/>
   <g id="svg_9">
    <path stroke-linejoin="round" fill="none" stroke-width="0.109287" stroke="#000000" d="m11.544804,33.240517c0.335388,-16.033209 7.742998,-28.839575 16.545387,-28.603565c8.802383,0.23596 15.666225,13.424938 15.330849,29.45826c-0.335384,16.033585 -7.742985,28.839848 -16.54537,28.603943c-8.802387,-0.235912 -15.666248,-13.425049 -15.330866,-29.458637z"/>
    <path stroke-linejoin="round" fill="none" stroke-width="0.109287" stroke="#000000" d="m10.048926,55.883316c0.327369,-15.650173 8.140185,-28.134842 17.450362,-27.885376c9.310221,0.249468 16.592264,13.138702 16.264887,28.788879c-0.327377,15.650169 -8.140156,28.134834 -17.450377,27.885376c-9.310225,-0.249481 -16.592243,-13.13871 -16.264873,-28.788879z"/>
    <path stroke-linejoin="round" fill="none" stroke-width="0.109287" stroke="#000000" d="m12.000126,79.890587c0.358101,-17.119305 8.287296,-30.792191 17.710384,-30.539474c9.423031,0.252174 16.771618,14.335056 16.413532,31.454361c-0.358082,17.119301 -8.287315,30.792747 -17.710358,30.540016c-9.423082,-0.252716 -16.771662,-14.335594 -16.413559,-31.454903z"/>
    <path stroke-linejoin="round" fill="none" stroke-width="0.109287" stroke="#000000" d="m11.984085,109.979385c0.34207,-16.353004 8.258257,-29.404938 17.681343,-29.152222c9.423038,0.252716 16.784653,13.714104 16.442574,30.067116c-0.342041,16.35247 -8.258247,29.404411 -17.681335,29.151695c-9.423035,-0.252731 -16.784647,-13.714096 -16.442581,-30.066589z"/>
    <path stroke-linejoin="round" fill="none" stroke-width="0.109287" stroke="#000000" d="m13.57369,141.499374c0.347414,-16.608444 7.856253,-29.878387 16.771502,-29.639236c8.915253,0.239166 15.860817,13.896324 15.513416,30.504761c-0.347408,16.608459 -7.856281,29.878387 -16.771526,29.639221c-8.915205,-0.238617 -15.860802,-13.896301 -15.513391,-30.504745z"/>
    <path stroke-linejoin="round" fill="none" stroke-width="0.109287" stroke="#000000" d="m17.027431,172.499268c-5.655467,-15.468491 -4.194601,-30.840454 3.262913,-34.335144c7.45752,-3.494141 18.0877,6.212234 23.743206,21.68074c5.655445,15.467941 4.194595,30.839905 -3.26292,34.334595c-7.457516,3.494156 -18.087748,-6.212234 -23.743198,-21.680191z"/>
    <path stroke-linejoin="round" fill="none" stroke-width="0.109287" stroke="#000000" d="m26.584314,173.654419c3.101423,-8.366348 15.572523,-10.418457 27.854929,-4.58313c12.282551,5.835327 19.724972,17.34816 16.623646,25.714462c-3.101334,8.366318 -15.572575,10.418442 -27.854973,4.583145c-12.28241,-5.835327 -19.725031,-17.34819 -16.623602,-25.714478z"/>
    <path stroke-linejoin="round" fill="none" stroke-width="0.109287" stroke="#000000" d="m48.210426,191.162018c0,-8.17868 11.209778,-14.809052 25.037857,-14.809052c13.828094,0 25.038208,6.630371 25.038208,14.809052c0,8.178665 -11.210114,14.808487 -25.038208,14.808487c-13.828079,0 -25.037857,-6.629822 -25.037857,-14.808487z"/>
    <path stroke-linejoin="round" fill="none" stroke-width="0.109287" stroke="#000000" d="m73.963982,192.203247c0,-8.754059 10.203163,-15.850281 22.789558,-15.850281c12.586403,0 22.789566,7.096222 22.789566,15.850281c0,8.75354 -10.203163,15.849762 -22.789566,15.849762c-12.586395,0 -22.789558,-7.096222 -22.789558,-15.849762z"/>
    <path stroke-linejoin="round" fill="none" stroke-width="0.109287" stroke="#000000" d="m101.920525,200.028885c-3.92865,-7.464981 1.691978,-19.455612 12.553337,-26.78067c10.861374,-7.325607 22.851364,-7.211731 26.779999,0.253784c3.928665,7.464996 -1.691971,19.455612 -12.553329,26.780701c-10.861374,7.325592 -22.851379,7.211731 -26.780006,-0.253815z"/>
    <path stroke-linejoin="round" fill="none" stroke-width="0.109287" stroke="#000000" d="m111.470741,31.827778c-0.468498,-16.029356 6.28553,-29.290835 15.085579,-29.620508c8.800049,-0.329675 16.313828,12.397295 16.782349,28.426332c0.468521,16.029251 -6.285538,29.290516 -15.085587,29.620247c-8.800034,0.329727 -16.313843,-12.397358 -16.782341,-28.426071z"/>
    <path stroke-linejoin="round" fill="none" stroke-width="0.109287" stroke="#000000" d="m113.240807,52.654903c-0.098679,-15.653969 7.370575,-28.405289 16.683189,-28.480614c9.312622,-0.075384 16.941879,12.553864 17.040558,28.207832c0.098679,15.653965 -7.37056,28.405453 -16.682709,28.480839c-9.312614,0.075378 -16.942352,-12.553543 -17.041039,-28.208057z"/>
    <path stroke-linejoin="round" fill="none" stroke-width="0.109287" stroke="#000000" d="m114.004898,87.227051c-0.107796,-17.12365 7.44529,-31.067158 16.870972,-31.143078c9.425171,-0.076466 17.153595,13.743389 17.261871,30.867039c0.108276,17.123634 -7.445282,31.067131 -16.870499,31.143066c-9.425674,0.076454 -17.154091,-13.743385 -17.262344,-30.867027z"/>
    <path stroke-linejoin="round" fill="none" stroke-width="0.109287" stroke="#000000" d="m115.421425,115.450821c-0.103477,-16.356796 7.453926,-29.67881 16.879112,-29.755287c9.425659,-0.075912 17.150253,13.121895 17.253265,29.47924c0.103455,16.356827 -7.453934,29.678833 -16.87912,29.754761c-9.42569,0.076462 -17.150276,-13.121902 -17.253258,-29.478714z"/>
    <path stroke-linejoin="round" fill="none" stroke-width="0.109287" stroke="#000000" d="m117.194359,141.581268c-0.104912,-16.612785 7.039085,-30.138168 15.956963,-30.210289c8.917389,-0.072128 16.231445,13.336639 16.336349,29.948891c0.104904,16.612778 -7.039536,30.138168 -15.956955,30.210281c-8.917389,0.072128 -16.231445,-13.336105 -16.336357,-29.948883z"/>
    <path stroke-linejoin="round" fill="none" stroke-width="0.109287" stroke="#000000" d="m121.777367,193.452209c-6.41008,-4.172028 -6.429726,-17.747849 -0.044067,-30.321991c6.386147,-12.574692 16.758888,-19.3862 23.168968,-15.214157c6.410095,4.172043 6.429733,17.747299 0.043594,30.321976c-6.385666,12.574188 -16.758377,19.385666 -23.168495,15.214172z"/>
   </g>
  </g>
 </g>
</svg>